<svg id="Capa_1" data-name="Capa 1" xmlns="http://www.w3.org/2000/svg" viewBox="0 0 245.95 235.78"><defs><style>.cls-1{fill:#c4c494;}</style></defs><title>patita final sin fondo</title><path class="cls-1" d="M234.28,271.5c-6.23,15.63-23.24,24.78-42.57,20.21-10.68-2.53-17.63-9.57-23.82-17.87-2.81-3.78-5.57-7.61-8.56-11.24-8-9.68-18.36-14.19-30.89-13.5-7,.39-14,1.22-20.93,1.6-18.55,1-32.82-12.08-37.09-25.25-5-15.39-.24-28.52,10.65-39.72A45.83,45.83,0,0,1,108.61,172c17.37-2.19,33.27-8.48,48.77-16,20.66-10.08,45.16.38,51.48,22.46A185,185,0,0,0,231.64,229C240.13,242,240.32,258,234.28,271.5Z" transform="translate(-52.03 -57.11)"/><path class="cls-1" d="M197.25,111.67c-3.48,7.19-9.69,16.31-20.95,20.59-10.64,4.05-20.87-.33-25.53-10.75-4.77-10.63-4.48-21.53-1.23-32.39,2.6-8.71,6.78-16.69,13.49-23,5.68-5.38,12.11-9.61,20.32-8.89,9.47.84,16.44,7.66,18.89,17.87C205,86.62,203.53,97.76,197.25,111.67Z" transform="translate(-52.03 -57.11)"/><path class="cls-1" d="M265.72,136.39c-4.21,8.53-11.79,18.41-24.19,23.39-14.31,5.75-26.54-1.15-29.21-16.38-1.92-11,.66-21.11,5.92-30.79C222.9,104,229,96.9,237.55,92.05c6.42-3.65,13.18-5.4,20.48-2.81s11.05,7.91,12.72,15C273,113.73,271.76,122.8,265.72,136.39Z" transform="translate(-52.03 -57.11)"/><path class="cls-1" d="M294.37,206c-5.08,10.61-12.53,18.72-23.93,22.7-6.64,2.32-13.05,1.94-18.31-.58-6.34-3.05-11-9.22-12.4-17.57-2.92-17.5,10.38-38.75,27.34-43.69,16.47-4.79,29.77,4.58,30.84,21.73C298.26,194.06,297.1,199.67,294.37,206Z" transform="translate(-52.03 -57.11)"/><path class="cls-1" d="M125.92,140.23a35.94,35.94,0,0,1-13.12,14.69c-12.23,7.59-26.61,3.38-32.72-9.63-5-10.59-4.88-21.35-.74-32.2a38.4,38.4,0,0,1,11.6-16.68c14-11.33,32.5-5.64,37.75,11.65C131.7,118,131,128.72,125.92,140.23Z" transform="translate(-52.03 -57.11)"/><path class="cls-1" d="M52.29,223.16c-.6-.85,0-1.68.05-2.52C53.25,221.5,52.66,222.33,52.29,223.16Z" transform="translate(-52.03 -57.11)"/></svg>